M48
;Layer_Color=9474304
;FILE_FORMAT=4:4
METRIC,LZ
;TYPE=PLATED
T1F00S00C0.2000
T2F00S00C0.3000
T3F00S00C0.9000
T4F00S00C1.0000
%
T01
X00310375Y000693
Y000793
X00320375
Y000693
T02
X00055163Y00097501
X00063Y00132402
X0007482Y00126222
X000845Y00120722
X0009Y00115
X00128844Y00080647
X0015475Y00092
X00184002Y00088649
X00191581
X00207581
X00204836Y00047972
X00230976Y00050717
X00272
X00278Y0007555
X00304504Y00047972
X0034858Y00048783
X00383Y00045
X00405Y00086
X00407778Y00116405
X00416Y00114
X00436169Y00064647
X00444669Y0006678
X0033189Y00076
X00158189Y00053779
X00184002Y00168
X00191581Y0020228
X00175581Y00202
X00137455Y00187751
X00105944Y00172
X00114137Y00156203
X00097711
X0009146Y001445
X0007482Y0013968
X00114137Y00245503
X00118138Y00272868
X00199581Y00281403
X00209131Y00236684
X00235224Y00244503
X00230976Y00209702
X00288169Y00206703
X00306168Y00213233
X00366081Y00206703
X00351581Y0018
X00403Y0019378
X0042405
X00445668Y00176
X00424919Y00253
X00444625Y0031478
X00428419Y00341838
X00387169Y00332
X00370668Y0034453
X00360419Y00321104
Y0029453
X00342668Y00255281
X00275168Y00313202
X0020859Y00332
X0019192Y003498
X00184922Y0034453
X00173Y00338407
X00201054Y0037328
X00198554Y0040578
X0019192Y0041228
X00189Y0042578
X00214Y00421
X00184002Y0039928
X0016495Y0043828
X00162138Y00459278
X00168Y0048328
Y00505768
X00181Y004935
X00198554
X00209919
X00223169Y00495282
X0023642Y00486685
X00233668Y0047353
X00256668Y0046103
X00263169Y004935
X00259Y00505768
X00256668Y00518501
X00265Y00529253
X00235929Y00535
X00173
X00147887Y00524518
X00141138Y00503
X0011932Y00506925
Y00459278
X00103138Y0045053
X0008032Y0045453
Y0042275
X0007482Y0040028
X00068291Y00402804
X00064545Y00408718
X0008032Y00394258
X0008582Y0037978
X00114137Y0037153
X0012895Y0036603
X00122444Y0038628
X00132388Y0041228
X00102852Y003498
X00077386Y00486186
X00058Y00467
X0019292Y0047778
X00287669Y00451
X00301168
X00322169Y0046203
X0034Y0047353
Y0048403
Y00497018
X00348918Y0051
X00355Y00522768
X00357668Y00535
X00331169
X00323861Y00524518
X00318589Y00513074
X00313418Y00498281
Y00486685
X00374669Y00503
X00370668Y00453262
X00397206Y0044153
X00404Y00407
X00342668Y0040903
X00331169Y0037653
X00308169Y0037678
X00287669Y00403293
X00268669Y0040253
X00256668Y0038303
X00269831Y00156203
X00428419Y0047678
X00458337Y00513074
X00451917Y0042853
Y0036521
X00451169Y00241
X00364Y00547
X00327169Y00549446
X00281669
X00275168Y00540008
X00245857Y00549446
X00221419Y00540008
X00205669
X00185152Y00537
T03
X00508Y00045
Y000708
Y000958
Y001212
X000254
Y000958
Y000704
Y00045
Y00147
Y00172
Y002228
Y002486
Y002736
Y00299
Y003244
Y003498
Y003756
Y004006
X00508Y003905
Y003651
Y003401
Y003143
Y002889
Y002635
Y002228
Y001978
Y00172
Y001466
Y004159
Y004413
Y004671
Y004921
T04
X00062Y00565
X00037
M30
