G04*
G04 #@! TF.GenerationSoftware,Altium Limited,Altium Designer,22.10.1 (41)*
G04*
G04 Layer_Color=65535*
%FSLAX44Y44*%
%MOMM*%
G71*
G04*
G04 #@! TF.SameCoordinates,CF2D2C2D-E053-46F7-9F59-BE4F3A44D851*
G04*
G04*
G04 #@! TF.FilePolarity,Positive*
G04*
G01*
G75*
%ADD10C,0.1000*%
%ADD11C,0.2500*%
%ADD12C,0.2000*%
%ADD13C,0.5000*%
%ADD14C,0.6000*%
%ADD15C,0.2540*%
%ADD16C,0.1500*%
%ADD17C,0.0800*%
D10*
X119838Y244184D02*
G03*
X119838Y244184I-500J0D01*
G01*
X305004Y53779D02*
G03*
X305004Y53779I-500J0D01*
G01*
X423587Y573558D02*
G03*
X423587Y573558I-500J0D01*
G01*
X458837Y575196D02*
G03*
X458837Y575196I-500J0D01*
G01*
X52000Y324499D02*
X56665D01*
X54333Y326832D02*
Y322166D01*
X58998Y326832D02*
X60164Y327998D01*
X62497D01*
X63663Y326832D01*
Y325665D01*
X62497Y324499D01*
X61330D01*
X62497D01*
X63663Y323333D01*
Y322166D01*
X62497Y321000D01*
X60164D01*
X58998Y322166D01*
X65995Y327998D02*
Y323333D01*
X68328Y321000D01*
X70661Y323333D01*
Y327998D01*
X72993Y326832D02*
X74159Y327998D01*
X76492D01*
X77658Y326832D01*
Y325665D01*
X76492Y324499D01*
X75326D01*
X76492D01*
X77658Y323333D01*
Y322166D01*
X76492Y321000D01*
X74159D01*
X72993Y322166D01*
X53000Y226998D02*
Y222333D01*
X55333Y220000D01*
X57665Y222333D01*
Y226998D01*
X59998D02*
X62330D01*
X61164D01*
Y220000D01*
X59998D01*
X62330D01*
X65829D02*
Y226998D01*
X70494Y220000D01*
Y226998D01*
X53000Y300379D02*
X57665D01*
X55333Y302711D02*
Y298046D01*
X64663Y303878D02*
X59998D01*
Y300379D01*
X62330Y301545D01*
X63497D01*
X64663Y300379D01*
Y298046D01*
X63497Y296880D01*
X61164D01*
X59998Y298046D01*
X66996Y303878D02*
Y299212D01*
X69328Y296880D01*
X71661Y299212D01*
Y303878D01*
X256516Y490574D02*
Y494573D01*
X255517Y495573D01*
X253517D01*
X252518Y494573D01*
Y490574D01*
X253517Y489574D01*
X255517D01*
X254517Y491574D02*
X256516Y489574D01*
X255517D02*
X256516Y490574D01*
X258516Y495573D02*
Y490574D01*
X259515Y489574D01*
X261515D01*
X262514Y490574D01*
Y495573D01*
X268513D02*
X264514D01*
Y489574D01*
X268513D01*
X264514Y492573D02*
X266513D01*
X274511Y494573D02*
X273511Y495573D01*
X271512D01*
X270512Y494573D01*
Y490574D01*
X271512Y489574D01*
X273511D01*
X274511Y490574D01*
X276510Y495573D02*
X280509D01*
X278509D01*
Y489574D01*
X286507Y495573D02*
X282508D01*
Y489574D01*
X286507D01*
X282508Y492573D02*
X284507D01*
X288506Y495573D02*
Y489574D01*
X292505D01*
X300502Y495573D02*
Y489574D01*
X303501D01*
X304501Y490574D01*
Y491574D01*
X303501Y492573D01*
X300502D01*
X303501D01*
X304501Y493573D01*
Y494573D01*
X303501Y495573D01*
X300502D01*
X310499Y494573D02*
X309499Y495573D01*
X307500D01*
X306500Y494573D01*
Y490574D01*
X307500Y489574D01*
X309499D01*
X310499Y490574D01*
Y492573D01*
X308500D01*
X312498Y495573D02*
X316497D01*
Y494573D01*
X312498Y490574D01*
Y489574D01*
X318496Y495573D02*
X322495D01*
Y494573D01*
X318496Y490574D01*
Y489574D01*
X53000Y43750D02*
Y50748D01*
X56499D01*
X57665Y49581D01*
Y47249D01*
X56499Y46083D01*
X53000D01*
X55333D02*
X57665Y43750D01*
X64663Y50748D02*
X59998D01*
Y43750D01*
X64663D01*
X59998Y47249D02*
X62330D01*
X71661Y49581D02*
X70494Y50748D01*
X68162D01*
X66996Y49581D01*
Y48415D01*
X68162Y47249D01*
X70494D01*
X71661Y46083D01*
Y44916D01*
X70494Y43750D01*
X68162D01*
X66996Y44916D01*
X78658Y50748D02*
X73993D01*
Y43750D01*
X78658D01*
X73993Y47249D02*
X76326D01*
X80991Y50748D02*
X85656D01*
X83324D01*
Y43750D01*
X52000Y68750D02*
Y75748D01*
X55499D01*
X56665Y74581D01*
Y72249D01*
X55499Y71083D01*
X52000D01*
X58998Y75748D02*
Y68750D01*
X61330Y71083D01*
X63663Y68750D01*
Y75748D01*
X65995Y68750D02*
Y75748D01*
X69494D01*
X70661Y74581D01*
Y72249D01*
X69494Y71083D01*
X65995D01*
X68328D02*
X70661Y68750D01*
X72993Y75748D02*
Y68750D01*
Y71083D01*
X77658Y75748D01*
X74159Y72249D01*
X77658Y68750D01*
X84656Y75748D02*
X79991D01*
Y68750D01*
X84656D01*
X79991Y72249D02*
X82324D01*
X86989Y75748D02*
Y74581D01*
X89321Y72249D01*
X91654Y74581D01*
Y75748D01*
X89321Y72249D02*
Y68750D01*
X55665Y98998D02*
X54499Y100164D01*
X52166D01*
X51000Y98998D01*
Y94333D01*
X52166Y93166D01*
X54499D01*
X55665Y94333D01*
Y96665D01*
X53333D01*
X57998Y93166D02*
Y100164D01*
X62663Y93166D01*
Y100164D01*
X69661Y98998D02*
X68494Y100164D01*
X66162D01*
X64995Y98998D01*
Y97831D01*
X66162Y96665D01*
X68494D01*
X69661Y95499D01*
Y94333D01*
X68494Y93166D01*
X66162D01*
X64995Y94333D01*
X76658Y98998D02*
X75492Y100164D01*
X73159D01*
X71993Y98998D01*
Y97831D01*
X73159Y96665D01*
X75492D01*
X76658Y95499D01*
Y94333D01*
X75492Y93166D01*
X73159D01*
X71993Y94333D01*
X78991Y92000D02*
X83656D01*
X90654Y100164D02*
X85989D01*
Y93166D01*
X90654D01*
X85989Y96665D02*
X88321D01*
X92986Y93166D02*
Y100164D01*
X97652Y93166D01*
Y100164D01*
X52000Y117166D02*
Y124164D01*
X55499D01*
X56665Y122998D01*
Y120665D01*
X55499Y119499D01*
X52000D01*
X58998Y124164D02*
Y117166D01*
X61330Y119499D01*
X63663Y117166D01*
Y124164D01*
X65995Y117166D02*
Y124164D01*
X69494D01*
X70661Y122998D01*
Y120665D01*
X69494Y119499D01*
X65995D01*
X68328D02*
X70661Y117166D01*
X72993Y116000D02*
X77658D01*
X84656Y124164D02*
X79991D01*
Y117166D01*
X84656D01*
X79991Y120665D02*
X82324D01*
X86989Y117166D02*
Y124164D01*
X91654Y117166D01*
Y124164D01*
X52000Y150998D02*
Y144000D01*
X55499D01*
X56665Y145166D01*
Y149831D01*
X55499Y150998D01*
X52000D01*
X58998D02*
X63663D01*
X61330D01*
Y144000D01*
X65995D02*
Y150998D01*
X69494D01*
X70661Y149831D01*
Y147499D01*
X69494Y146333D01*
X65995D01*
X68328D02*
X70661Y144000D01*
X51000Y169000D02*
Y175998D01*
X54499D01*
X55665Y174832D01*
Y172499D01*
X54499Y171333D01*
X51000D01*
X53333D02*
X55665Y169000D01*
X57998Y175998D02*
X62663D01*
X60330D01*
Y169000D01*
X69661Y174832D02*
X68494Y175998D01*
X66162D01*
X64995Y174832D01*
Y173665D01*
X66162Y172499D01*
X68494D01*
X69661Y171333D01*
Y170166D01*
X68494Y169000D01*
X66162D01*
X64995Y170166D01*
X458000Y47998D02*
X462665D01*
X460333D01*
Y41000D01*
X464998Y47998D02*
X469663Y41000D01*
Y47998D02*
X464998Y41000D01*
X471996Y47998D02*
Y41000D01*
X475494D01*
X476661Y42166D01*
Y46831D01*
X475494Y47998D01*
X471996D01*
X458000Y67780D02*
Y74778D01*
X461499D01*
X462665Y73611D01*
Y71279D01*
X461499Y70113D01*
X458000D01*
X460333D02*
X462665Y67780D01*
X464998Y74778D02*
X469663Y67780D01*
Y74778D02*
X464998Y67780D01*
X471996Y74778D02*
Y67780D01*
X475494D01*
X476661Y68946D01*
Y73611D01*
X475494Y74778D01*
X471996D01*
X457000Y92300D02*
Y99298D01*
X460499D01*
X461665Y98131D01*
Y95799D01*
X460499Y94633D01*
X457000D01*
X459333D02*
X461665Y92300D01*
X463998Y99298D02*
X466330D01*
X465164D01*
Y92300D01*
X463998D01*
X466330D01*
X469829D02*
Y99298D01*
X474494Y92300D01*
Y99298D01*
X481492Y98131D02*
X480326Y99298D01*
X477993D01*
X476827Y98131D01*
Y93466D01*
X477993Y92300D01*
X480326D01*
X481492Y93466D01*
Y95799D01*
X479160D01*
X461665Y123832D02*
X460499Y124998D01*
X458166D01*
X457000Y123832D01*
Y122665D01*
X458166Y121499D01*
X460499D01*
X461665Y120333D01*
Y119166D01*
X460499Y118000D01*
X458166D01*
X457000Y119166D01*
X463998Y124998D02*
X468663D01*
X466330D01*
Y118000D01*
X470995D02*
Y122665D01*
X473328Y124998D01*
X475661Y122665D01*
Y118000D01*
Y121499D01*
X470995D01*
X477993Y124998D02*
X482658D01*
X480326D01*
Y118000D01*
X423000Y143000D02*
Y147665D01*
X425333Y149998D01*
X427665Y147665D01*
Y143000D01*
Y146499D01*
X423000D01*
X434663Y148832D02*
X433497Y149998D01*
X431164D01*
X429998Y148832D01*
Y144166D01*
X431164Y143000D01*
X433497D01*
X434663Y144166D01*
X441661Y148832D02*
X440494Y149998D01*
X438162D01*
X436996Y148832D01*
Y144166D01*
X438162Y143000D01*
X440494D01*
X441661Y144166D01*
X448658Y149998D02*
X443993D01*
Y143000D01*
X448658D01*
X443993Y146499D02*
X446326D01*
X450991Y149998D02*
Y143000D01*
X455656D01*
X464986Y149998D02*
X467319D01*
X466153D01*
Y143000D01*
X464986D01*
X467319D01*
X470818D02*
Y149998D01*
X475483Y143000D01*
Y149998D01*
X477816D02*
X482481D01*
X480148D01*
Y143000D01*
X463220Y176378D02*
Y169380D01*
X466719D01*
X467885Y170546D01*
Y175211D01*
X466719Y176378D01*
X463220D01*
X474883Y175211D02*
X473717Y176378D01*
X471384D01*
X470218Y175211D01*
Y170546D01*
X471384Y169380D01*
X473717D01*
X474883Y170546D01*
X477216Y176378D02*
Y169380D01*
X480714D01*
X481881Y170546D01*
Y175211D01*
X480714Y176378D01*
X477216D01*
X467885Y200611D02*
X466719Y201778D01*
X464386D01*
X463220Y200611D01*
Y195946D01*
X464386Y194780D01*
X466719D01*
X467885Y195946D01*
X470218Y201778D02*
X474883D01*
X472550D01*
Y194780D01*
X481881Y200611D02*
X480714Y201778D01*
X478382D01*
X477216Y200611D01*
Y199445D01*
X478382Y198279D01*
X480714D01*
X481881Y197113D01*
Y195946D01*
X480714Y194780D01*
X478382D01*
X477216Y195946D01*
X469165Y469911D02*
X467999Y471078D01*
X465666D01*
X464500Y469911D01*
Y468745D01*
X465666Y467579D01*
X467999D01*
X469165Y466413D01*
Y465246D01*
X467999Y464080D01*
X465666D01*
X464500Y465246D01*
X471498Y471078D02*
Y464080D01*
X474997D01*
X476163Y465246D01*
Y469911D01*
X474997Y471078D01*
X471498D01*
X478495Y464080D02*
Y468745D01*
X480828Y471078D01*
X483161Y468745D01*
Y464080D01*
Y467579D01*
X478495D01*
X470501Y495311D02*
X469335Y496478D01*
X467002D01*
X465836Y495311D01*
Y494145D01*
X467002Y492979D01*
X469335D01*
X470501Y491813D01*
Y490646D01*
X469335Y489480D01*
X467002D01*
X465836Y490646D01*
X477499Y495311D02*
X476333Y496478D01*
X474000D01*
X472834Y495311D01*
Y490646D01*
X474000Y489480D01*
X476333D01*
X477499Y490646D01*
X479832Y496478D02*
Y489480D01*
X484497D01*
X45315Y49748D02*
X42983Y48582D01*
X40650Y46249D01*
Y43916D01*
X41816Y42750D01*
X44149D01*
X45315Y43916D01*
Y45083D01*
X44149Y46249D01*
X40650D01*
Y123581D02*
X41816Y124748D01*
X44149D01*
X45315Y123581D01*
Y122415D01*
X44149Y121249D01*
X42983D01*
X44149D01*
X45315Y120083D01*
Y118916D01*
X44149Y117750D01*
X41816D01*
X40650Y118916D01*
X45665Y143000D02*
X41000D01*
X45665Y147665D01*
Y148832D01*
X44499Y149998D01*
X42166D01*
X41000Y148832D01*
X41920Y168000D02*
X44253D01*
X43086D01*
Y174998D01*
X41920Y173832D01*
X44149Y92750D02*
Y99748D01*
X40650Y96249D01*
X45315D01*
Y74748D02*
X40650D01*
Y71249D01*
X42983Y72415D01*
X44149D01*
X45315Y71249D01*
Y68916D01*
X44149Y67750D01*
X41816D01*
X40650Y68916D01*
X46585Y302878D02*
X41920D01*
Y299379D01*
X44253Y300545D01*
X45419D01*
X46585Y299379D01*
Y297046D01*
X45419Y295880D01*
X43086D01*
X41920Y297046D01*
X45419Y321280D02*
Y328278D01*
X41920Y324779D01*
X46585D01*
X44460Y397480D02*
X46792D01*
X45626D01*
Y404478D01*
X44460Y403311D01*
X46585Y372080D02*
X41920D01*
X46585Y376745D01*
Y377911D01*
X45419Y379078D01*
X43086D01*
X41920Y377911D01*
Y352511D02*
X43086Y353678D01*
X45419D01*
X46585Y352511D01*
Y351345D01*
X45419Y350179D01*
X44253D01*
X45419D01*
X46585Y349012D01*
Y347846D01*
X45419Y346680D01*
X43086D01*
X41920Y347846D01*
Y225511D02*
X43086Y226678D01*
X45419D01*
X46585Y225511D01*
Y224345D01*
X45419Y223179D01*
X46585Y222013D01*
Y220846D01*
X45419Y219680D01*
X43086D01*
X41920Y220846D01*
Y222013D01*
X43086Y223179D01*
X41920Y224345D01*
Y225511D01*
X43086Y223179D02*
X45419D01*
X41920Y252078D02*
X46585D01*
Y250911D01*
X41920Y246246D01*
Y245080D01*
X46585Y277478D02*
X44253Y276311D01*
X41920Y273979D01*
Y271646D01*
X43086Y270480D01*
X45419D01*
X46585Y271646D01*
Y272812D01*
X45419Y273979D01*
X41920D01*
X484000Y261100D02*
X486333D01*
X485166D01*
Y268098D01*
X484000Y266931D01*
X489832D02*
X490998Y268098D01*
X493330D01*
X494497Y266931D01*
Y262266D01*
X493330Y261100D01*
X490998D01*
X489832Y262266D01*
Y266931D01*
X489520Y286446D02*
X490686Y285280D01*
X493019D01*
X494185Y286446D01*
Y291111D01*
X493019Y292278D01*
X490686D01*
X489520Y291111D01*
Y289945D01*
X490686Y288779D01*
X494185D01*
Y368478D02*
X491853Y367311D01*
X489520Y364979D01*
Y362646D01*
X490686Y361480D01*
X493019D01*
X494185Y362646D01*
Y363813D01*
X493019Y364979D01*
X489520D01*
Y343078D02*
X494185D01*
Y341911D01*
X489520Y337246D01*
Y336080D01*
Y316511D02*
X490686Y317678D01*
X493019D01*
X494185Y316511D01*
Y315345D01*
X493019Y314179D01*
X494185Y313013D01*
Y311846D01*
X493019Y310680D01*
X490686D01*
X489520Y311846D01*
Y313013D01*
X490686Y314179D01*
X489520Y315345D01*
Y316511D01*
X490686Y314179D02*
X493019D01*
X489520Y443511D02*
X490686Y444678D01*
X493019D01*
X494185Y443511D01*
Y442345D01*
X493019Y441179D01*
X491853D01*
X493019D01*
X494185Y440013D01*
Y438846D01*
X493019Y437680D01*
X490686D01*
X489520Y438846D01*
X494185Y463080D02*
X489520D01*
X494185Y467745D01*
Y468911D01*
X493019Y470078D01*
X490686D01*
X489520Y468911D01*
X492060Y488480D02*
X494393D01*
X493226D01*
Y495478D01*
X492060Y494311D01*
X493019Y412280D02*
Y419278D01*
X489520Y415779D01*
X494185D01*
Y393878D02*
X489520D01*
Y390379D01*
X491853Y391545D01*
X493019D01*
X494185Y390379D01*
Y388046D01*
X493019Y386880D01*
X490686D01*
X489520Y388046D01*
X494185Y124578D02*
X489520D01*
Y121079D01*
X491853Y122245D01*
X493019D01*
X494185Y121079D01*
Y118746D01*
X493019Y117580D01*
X490686D01*
X489520Y118746D01*
X493019Y142980D02*
Y149978D01*
X489520Y146479D01*
X494185D01*
X492060Y219180D02*
X494393D01*
X493226D01*
Y226178D01*
X492060Y225011D01*
X494185Y193780D02*
X489520D01*
X494185Y198445D01*
Y199611D01*
X493019Y200778D01*
X490686D01*
X489520Y199611D01*
Y174211D02*
X490686Y175378D01*
X493019D01*
X494185Y174211D01*
Y173045D01*
X493019Y171879D01*
X491853D01*
X493019D01*
X494185Y170713D01*
Y169546D01*
X493019Y168380D01*
X490686D01*
X489520Y169546D01*
Y47211D02*
X490686Y48378D01*
X493019D01*
X494185Y47211D01*
Y46045D01*
X493019Y44879D01*
X494185Y43713D01*
Y42546D01*
X493019Y41380D01*
X490686D01*
X489520Y42546D01*
Y43713D01*
X490686Y44879D01*
X489520Y46045D01*
Y47211D01*
X490686Y44879D02*
X493019D01*
X489520Y73778D02*
X494185D01*
Y72611D01*
X489520Y67946D01*
Y66780D01*
X494185Y99178D02*
X491853Y98011D01*
X489520Y95679D01*
Y93346D01*
X490686Y92180D01*
X493019D01*
X494185Y93346D01*
Y94513D01*
X493019Y95679D01*
X489520D01*
X175831Y39300D02*
Y43965D01*
X178164Y46298D01*
X180496Y43965D01*
Y39300D01*
Y42799D01*
X175831D01*
X182829Y46298D02*
Y39300D01*
X186328D01*
X187494Y40466D01*
Y45131D01*
X186328Y46298D01*
X182829D01*
X189827D02*
X194492Y39300D01*
Y46298D02*
X189827Y39300D01*
X196824Y46298D02*
Y39300D01*
X201490D01*
X203822Y45131D02*
X204988Y46298D01*
X207321D01*
X208487Y45131D01*
Y43965D01*
X207321Y42799D01*
X206155D01*
X207321D01*
X208487Y41632D01*
Y40466D01*
X207321Y39300D01*
X204988D01*
X203822Y40466D01*
X214319Y39300D02*
Y46298D01*
X210820Y42799D01*
X215485D01*
X222483Y46298D02*
X217818D01*
Y42799D01*
X220150Y43965D01*
X221317D01*
X222483Y42799D01*
Y40466D01*
X221317Y39300D01*
X218984D01*
X217818Y40466D01*
X429811Y540008D02*
X425812D01*
X423813Y542007D01*
X425812Y544007D01*
X429811D01*
X426812D01*
Y540008D01*
X465061Y541646D02*
X461062D01*
X459063Y543646D01*
X461062Y545645D01*
X465061D01*
X462062D01*
Y541646D01*
X107000Y30998D02*
Y25000D01*
Y27999D01*
X110999D01*
Y30998D01*
Y25000D01*
X112998Y30998D02*
Y25000D01*
X114997Y26999D01*
X116997Y25000D01*
Y30998D01*
X124994Y28999D02*
X126994Y25000D01*
X128993Y28999D01*
X133991Y25000D02*
X131992D01*
X130992Y26000D01*
Y27999D01*
X131992Y28999D01*
X133991D01*
X134991Y27999D01*
Y26999D01*
X130992D01*
X136990Y28999D02*
Y25000D01*
Y26999D01*
X137990Y27999D01*
X138990Y28999D01*
X139989D01*
X142988Y25000D02*
X144988D01*
X143988D01*
Y30998D01*
X142988Y29998D01*
X147987Y25000D02*
Y26000D01*
X148986D01*
Y25000D01*
X147987D01*
X152985Y29998D02*
X153985Y30998D01*
X155984D01*
X156984Y29998D01*
Y26000D01*
X155984Y25000D01*
X153985D01*
X152985Y26000D01*
Y29998D01*
X131624Y205499D02*
Y199667D01*
X132790Y198501D01*
X135123D01*
X136289Y199667D01*
Y205499D01*
X142120Y198501D02*
Y205499D01*
X138622Y202000D01*
X143287D01*
X100112Y242891D02*
Y249889D01*
X103611D01*
X104777Y248722D01*
Y246390D01*
X103611Y245224D01*
X100112D01*
X102445D02*
X104777Y242891D01*
X107110Y244057D02*
X108276Y242891D01*
X110609D01*
X111775Y244057D01*
Y248722D01*
X110609Y249889D01*
X108276D01*
X107110Y248722D01*
Y247556D01*
X108276Y246390D01*
X111775D01*
X67871Y378612D02*
X66705Y379779D01*
X64372D01*
X63206Y378612D01*
Y373947D01*
X64372Y372781D01*
X66705D01*
X67871Y373947D01*
X70203Y372781D02*
X72536D01*
X71370D01*
Y379779D01*
X70203Y378612D01*
X76035Y372781D02*
X78368D01*
X77201D01*
Y379779D01*
X76035Y378612D01*
X309000Y50299D02*
Y44467D01*
X310166Y43301D01*
X312499D01*
X313665Y44467D01*
Y50299D01*
X320663D02*
X318330Y49132D01*
X315998Y46800D01*
Y44467D01*
X317164Y43301D01*
X319496D01*
X320663Y44467D01*
Y45634D01*
X319496Y46800D01*
X315998D01*
X360250Y88649D02*
Y95646D01*
X363749D01*
X364915Y94480D01*
Y92147D01*
X363749Y90981D01*
X360250D01*
X362582D02*
X364915Y88649D01*
X367248Y94480D02*
X368414Y95646D01*
X370746D01*
X371913Y94480D01*
Y93314D01*
X370746Y92147D01*
X371913Y90981D01*
Y89815D01*
X370746Y88649D01*
X368414D01*
X367248Y89815D01*
Y90981D01*
X368414Y92147D01*
X367248Y93314D01*
Y94480D01*
X368414Y92147D02*
X370746D01*
X339750Y88649D02*
Y95646D01*
X343249D01*
X344415Y94480D01*
Y92147D01*
X343249Y90981D01*
X339750D01*
X342082D02*
X344415Y88649D01*
X351413D02*
X346748D01*
X351413Y93314D01*
Y94480D01*
X350246Y95646D01*
X347914D01*
X346748Y94480D01*
X7419Y518501D02*
Y525499D01*
X10917D01*
X12084Y524333D01*
Y522000D01*
X10917Y520834D01*
X7419D01*
X19081Y518501D02*
X14416D01*
X19081Y523166D01*
Y524333D01*
X17915Y525499D01*
X15583D01*
X14416Y524333D01*
X494223Y249919D02*
X493057Y251086D01*
X490725D01*
X489558Y249919D01*
Y245254D01*
X490725Y244088D01*
X493057D01*
X494223Y245254D01*
X496556Y244088D02*
Y251086D01*
X501221Y244088D01*
Y251086D01*
X503554Y244088D02*
X505886D01*
X504720D01*
Y251086D01*
X503554Y249919D01*
X509385D02*
X510551Y251086D01*
X512884D01*
X514050Y249919D01*
Y245254D01*
X512884Y244088D01*
X510551D01*
X509385Y245254D01*
Y249919D01*
X19585Y193583D02*
X18419Y194749D01*
X16086D01*
X14920Y193583D01*
Y188917D01*
X16086Y187751D01*
X18419D01*
X19585Y188917D01*
X21917Y187751D02*
Y194749D01*
X26583Y187751D01*
Y194749D01*
X28915Y188917D02*
X30081Y187751D01*
X32414D01*
X33580Y188917D01*
Y193583D01*
X32414Y194749D01*
X30081D01*
X28915Y193583D01*
Y192416D01*
X30081Y191250D01*
X33580D01*
X488635Y518905D02*
X487469Y520072D01*
X485137D01*
X483970Y518905D01*
Y514240D01*
X485137Y513074D01*
X487469D01*
X488635Y514240D01*
X490968Y513074D02*
Y520072D01*
X495633Y513074D01*
Y520072D01*
X497966D02*
X502631D01*
Y518905D01*
X497966Y514240D01*
Y513074D01*
X20085Y425083D02*
X18918Y426249D01*
X16586D01*
X15420Y425083D01*
Y420417D01*
X16586Y419251D01*
X18918D01*
X20085Y420417D01*
X22417Y419251D02*
Y426249D01*
X27083Y419251D01*
Y426249D01*
X29415Y425083D02*
X30581Y426249D01*
X32914D01*
X34080Y425083D01*
Y423916D01*
X32914Y422750D01*
X34080Y421584D01*
Y420417D01*
X32914Y419251D01*
X30581D01*
X29415Y420417D01*
Y421584D01*
X30581Y422750D01*
X29415Y423916D01*
Y425083D01*
X30581Y422750D02*
X32914D01*
X285918Y103333D02*
X284752Y104499D01*
X282419D01*
X281253Y103333D01*
Y98667D01*
X282419Y97501D01*
X284752D01*
X285918Y98667D01*
X288251Y97501D02*
X290583D01*
X289417D01*
Y104499D01*
X288251Y103333D01*
X294082D02*
X295248Y104499D01*
X297581D01*
X298747Y103333D01*
Y98667D01*
X297581Y97501D01*
X295248D01*
X294082Y98667D01*
Y103333D01*
X151834Y66980D02*
X150667Y68146D01*
X148335D01*
X147169Y66980D01*
Y62315D01*
X148335Y61149D01*
X150667D01*
X151834Y62315D01*
X157665Y61149D02*
Y68146D01*
X154166Y64647D01*
X158832D01*
X198918Y319771D02*
Y315772D01*
Y317771D01*
X192920D01*
Y313773D02*
X198918D01*
Y310773D01*
X197918Y309774D01*
X195919D01*
X194919Y310773D01*
Y313773D01*
X192920Y303776D02*
Y307774D01*
X196918Y303776D01*
X197918D01*
X198918Y304775D01*
Y306775D01*
X197918Y307774D01*
X184922Y468779D02*
X188920D01*
X186921D01*
Y462781D01*
X190920D02*
Y468779D01*
X193919D01*
X194919Y467779D01*
Y465780D01*
X193919Y464780D01*
X190920D01*
X196918Y462781D02*
X198917D01*
X197918D01*
Y468779D01*
X196918Y467779D01*
X188002Y242504D02*
Y248502D01*
X191001D01*
X192000Y247502D01*
Y245503D01*
X191001Y244503D01*
X188002D01*
X190001D02*
X192000Y242504D01*
X197998Y248502D02*
X194000D01*
Y245503D01*
X195999Y246502D01*
X196999D01*
X197998Y245503D01*
Y243503D01*
X196999Y242504D01*
X194999D01*
X194000Y243503D01*
X91463Y495282D02*
Y501280D01*
X94462D01*
X95461Y500280D01*
Y498281D01*
X94462Y497281D01*
X91463D01*
X93462D02*
X95461Y495282D01*
X100460D02*
Y501280D01*
X97461Y498281D01*
X101459D01*
X157189Y259249D02*
X156190Y260249D01*
X154190D01*
X153191Y259249D01*
Y255251D01*
X154190Y254251D01*
X156190D01*
X157189Y255251D01*
X159189Y259249D02*
X160188Y260249D01*
X162188D01*
X163187Y259249D01*
Y258250D01*
X162188Y257250D01*
X163187Y256250D01*
Y255251D01*
X162188Y254251D01*
X160188D01*
X159189Y255251D01*
Y256250D01*
X160188Y257250D01*
X159189Y258250D01*
Y259249D01*
X160188Y257250D02*
X162188D01*
X276670Y548517D02*
X280669Y542519D01*
Y548517D02*
X276670Y542519D01*
X286667D02*
X282668D01*
X286667Y546518D01*
Y547518D01*
X285667Y548517D01*
X283668D01*
X282668Y547518D01*
X113420Y496499D02*
Y491500D01*
X114420Y490501D01*
X116419D01*
X117419Y491500D01*
Y496499D01*
X123417D02*
X119418D01*
Y493500D01*
X121417Y494499D01*
X122417D01*
X123417Y493500D01*
Y491500D01*
X122417Y490501D01*
X120418D01*
X119418Y491500D01*
X200670Y529253D02*
Y535251D01*
X203669D01*
X204669Y534251D01*
Y532252D01*
X203669Y531252D01*
X200670D01*
X202670D02*
X204669Y529253D01*
X206668Y534251D02*
X207668Y535251D01*
X209667D01*
X210667Y534251D01*
Y533251D01*
X209667Y532252D01*
X208668D01*
X209667D01*
X210667Y531252D01*
Y530252D01*
X209667Y529253D01*
X207668D01*
X206668Y530252D01*
X218670Y535251D02*
Y529253D01*
X222669D01*
X224668D02*
X226667D01*
X225668D01*
Y535251D01*
X224668Y534251D01*
X240419D02*
X239419Y535251D01*
X237420D01*
X236420Y534251D01*
Y530252D01*
X237420Y529253D01*
X239419D01*
X240419Y530252D01*
X242418Y535251D02*
X246417D01*
Y534251D01*
X242418Y530252D01*
Y529253D01*
X188000Y534251D02*
X187001Y535251D01*
X185001D01*
X184002Y534251D01*
Y530252D01*
X185001Y529253D01*
X187001D01*
X188000Y530252D01*
X193998Y535251D02*
X191999Y534251D01*
X190000Y532252D01*
Y530252D01*
X190999Y529253D01*
X192999D01*
X193998Y530252D01*
Y531252D01*
X192999Y532252D01*
X190000D01*
X413920Y432031D02*
Y438029D01*
X416919D01*
X417919Y437029D01*
Y435030D01*
X416919Y434030D01*
X413920D01*
X415919D02*
X417919Y432031D01*
X419918Y438029D02*
X423917D01*
Y437029D01*
X419918Y433031D01*
Y432031D01*
X423808Y553803D02*
X429806D01*
Y556802D01*
X428806Y557802D01*
X424808D01*
X423808Y556802D01*
Y553803D01*
X429806Y563800D02*
Y559801D01*
X425807Y563800D01*
X424808D01*
X423808Y562800D01*
Y560801D01*
X424808Y559801D01*
X434420Y432031D02*
Y438029D01*
X437419D01*
X438419Y437029D01*
Y435030D01*
X437419Y434030D01*
X434420D01*
X436419D02*
X438419Y432031D01*
X444417Y438029D02*
X442418Y437029D01*
X440418Y435030D01*
Y433031D01*
X441418Y432031D01*
X443417D01*
X444417Y433031D01*
Y434030D01*
X443417Y435030D01*
X440418D01*
X410919Y387461D02*
Y391459D01*
X409919Y392459D01*
X407920D01*
X406920Y391459D01*
Y387461D01*
X407920Y386461D01*
X409919D01*
X408920Y388460D02*
X410919Y386461D01*
X409919D02*
X410919Y387461D01*
X412918Y391459D02*
X413918Y392459D01*
X415917D01*
X416917Y391459D01*
Y390460D01*
X415917Y389460D01*
X414918D01*
X415917D01*
X416917Y388460D01*
Y387461D01*
X415917Y386461D01*
X413918D01*
X412918Y387461D01*
X458838Y557198D02*
X464836D01*
Y560197D01*
X463836Y561196D01*
X459838D01*
X458838Y560197D01*
Y557198D01*
X464836Y563196D02*
Y565195D01*
Y564195D01*
X458838D01*
X459838Y563196D01*
X134386Y438531D02*
X135386Y439531D01*
Y441530D01*
X134386Y442530D01*
X130387D01*
X129388Y441530D01*
Y439531D01*
X130387Y438531D01*
X135386Y432533D02*
Y436532D01*
X132387D01*
X133386Y434533D01*
Y433533D01*
X132387Y432533D01*
X130387D01*
X129388Y433533D01*
Y435532D01*
X130387Y436532D01*
X363418Y481778D02*
X358419D01*
X357420Y480779D01*
Y478779D01*
X358419Y477780D01*
X363418D01*
X357420Y475780D02*
Y473781D01*
Y474781D01*
X363418D01*
X362418Y475780D01*
X174755Y246596D02*
X173755Y247595D01*
X171756D01*
X170756Y246596D01*
Y242597D01*
X171756Y241597D01*
X173755D01*
X174755Y242597D01*
X176754D02*
X177754Y241597D01*
X179753D01*
X180753Y242597D01*
Y246596D01*
X179753Y247595D01*
X177754D01*
X176754Y246596D01*
Y245596D01*
X177754Y244596D01*
X180753D01*
X225611Y194703D02*
X220612D01*
X219613Y193703D01*
Y191704D01*
X220612Y190704D01*
X225611D01*
X219613Y184706D02*
Y188705D01*
X223611Y184706D01*
X224611D01*
X225611Y185706D01*
Y187705D01*
X224611Y188705D01*
X331169Y321104D02*
X337167D01*
Y318104D01*
X336167Y317105D01*
X334168D01*
X333168Y318104D01*
Y321104D01*
Y319104D02*
X331169Y317105D01*
Y315105D02*
Y313106D01*
Y314106D01*
X337167D01*
X336167Y315105D01*
X355000Y547276D02*
X358999Y541278D01*
Y547276D02*
X355000Y541278D01*
X360998D02*
X362997D01*
X361998D01*
Y547276D01*
X360998Y546276D01*
X391395Y349281D02*
X392394Y350281D01*
Y352280D01*
X391395Y353280D01*
X387396D01*
X386396Y352280D01*
Y350281D01*
X387396Y349281D01*
X391395Y347282D02*
X392394Y346282D01*
Y344283D01*
X391395Y343283D01*
X390395D01*
X389395Y344283D01*
Y345282D01*
Y344283D01*
X388396Y343283D01*
X387396D01*
X386396Y344283D01*
Y346282D01*
X387396Y347282D01*
X155138D02*
Y352280D01*
X154138Y353280D01*
X152138D01*
X151139Y352280D01*
Y347282D01*
X149139Y348282D02*
X148140Y347282D01*
X146140D01*
X145141Y348282D01*
Y349281D01*
X146140Y350281D01*
X147140D01*
X146140D01*
X145141Y351281D01*
Y352280D01*
X146140Y353280D01*
X148140D01*
X149139Y352280D01*
X377417Y349031D02*
X378416Y350031D01*
Y352030D01*
X377417Y353030D01*
X373418D01*
X372419Y352030D01*
Y350031D01*
X373418Y349031D01*
X372419Y343033D02*
Y347032D01*
X376417Y343033D01*
X377417D01*
X378416Y344033D01*
Y346032D01*
X377417Y347032D01*
X374667Y443278D02*
X373668Y444278D01*
X371668D01*
X370668Y443278D01*
Y439280D01*
X371668Y438280D01*
X373668D01*
X374667Y439280D01*
X376667Y438280D02*
X378666D01*
X377666D01*
Y444278D01*
X376667Y443278D01*
X421168Y295569D02*
X425167D01*
X426167Y296569D01*
Y298568D01*
X425167Y299568D01*
X421168D01*
X420168Y298568D01*
Y296569D01*
X422168Y297568D02*
X420168Y295569D01*
Y296569D02*
X421168Y295569D01*
X420168Y289571D02*
Y293570D01*
X424167Y289571D01*
X425167D01*
X426167Y290571D01*
Y292570D01*
X425167Y293570D01*
X423668Y228489D02*
X427667D01*
X428667Y229489D01*
Y231488D01*
X427667Y232488D01*
X423668D01*
X422668Y231488D01*
Y229489D01*
X424668Y230489D02*
X422668Y228489D01*
Y229489D02*
X423668Y228489D01*
X422668Y226490D02*
Y224491D01*
Y225490D01*
X428667D01*
X427667Y226490D01*
D11*
X141888Y462780D02*
G03*
X141888Y462780I-1250J0D01*
G01*
X244581Y70050D02*
G03*
X244581Y70050I-1000J0D01*
G01*
X227831Y91300D02*
G03*
X227831Y91300I-1250J0D01*
G01*
X411919Y365210D02*
G03*
X411919Y365210I-1250J0D01*
G01*
X163388Y352530D02*
G03*
X163388Y352530I-1250J0D01*
G01*
X419669Y204030D02*
G03*
X419669Y204030I-1250J0D01*
G01*
X418669Y269030D02*
G03*
X418669Y269030I-1250J0D01*
G01*
D12*
X249581Y70050D02*
G03*
X249581Y70050I-6000J0D01*
G01*
X150787Y210184D02*
X157338D01*
X123337D02*
X129888D01*
X150787Y244184D02*
X157338D01*
X123337D02*
X129888D01*
X157338Y210184D02*
Y211684D01*
Y242684D02*
Y244184D01*
X123337Y210184D02*
Y211684D01*
Y242684D02*
Y244184D01*
X126388Y465780D02*
Y487780D01*
X132388Y465780D02*
Y487780D01*
X126388D02*
X132388D01*
X126388Y465780D02*
X132388D01*
X411837Y558558D02*
Y559558D01*
X419337Y558558D02*
Y559558D01*
X447087Y560196D02*
Y561196D01*
X454587Y560196D02*
Y561196D01*
X413419Y376710D02*
Y381710D01*
X421669D01*
X443419Y376710D02*
Y381710D01*
X435168D02*
X443419D01*
X151138Y356530D02*
Y422530D01*
X114137Y356530D02*
Y422530D01*
Y356530D02*
X151138D01*
X114137Y422530D02*
X151138D01*
X368419Y409030D02*
Y415030D01*
X394418Y409030D02*
Y415030D01*
X442919Y220530D02*
X451169D01*
Y215530D02*
Y220530D01*
X421169D02*
X429418D01*
X421169Y215530D02*
Y220530D01*
X441918Y285530D02*
X450168D01*
Y280530D02*
Y285530D01*
X420168D02*
X428419D01*
X420168Y280530D02*
Y285530D01*
X56669Y498090D02*
X55003Y496424D01*
Y493091D01*
X56669Y491425D01*
X63334D01*
X65000Y493091D01*
Y496424D01*
X63334Y498090D01*
X60002D01*
Y494757D01*
X65000Y501422D02*
X55003D01*
X65000Y508087D01*
X55003D01*
Y511419D02*
X65000D01*
Y516417D01*
X63334Y518083D01*
X56669D01*
X55003Y516417D01*
Y511419D01*
X30463Y493500D02*
X37128D01*
X40460Y496832D01*
X37128Y500164D01*
X30463D01*
Y503497D02*
Y506829D01*
Y505163D01*
X40460D01*
Y503497D01*
Y506829D01*
Y511827D02*
X30463D01*
X40460Y518492D01*
X30463D01*
D13*
X217169Y461030D02*
G03*
X217169Y461030I-1000J0D01*
G01*
D14*
X144137Y366530D02*
G03*
X144137Y366530I-3000J0D01*
G01*
D15*
X77386Y534266D02*
Y595988D01*
X21760Y534266D02*
Y595988D01*
X77386D01*
X21760Y534266D02*
X77386D01*
X263831Y66300D02*
X267709Y70178D01*
X249881Y70306D02*
X267581D01*
X263831Y74056D02*
X267581Y70306D01*
X263831Y66300D02*
Y74056D01*
X239575Y90300D02*
X247331D01*
X239575D02*
X243325Y94050D01*
Y76350D02*
Y94050D01*
X243453Y94178D02*
X247331Y90300D01*
D16*
X353168Y334030D02*
Y484030D01*
X223169Y334030D02*
X353168D01*
X223169D02*
Y474030D01*
X233169Y484030D01*
X353168D01*
X450419Y592724D02*
X449086Y594057D01*
X446420D01*
X445087Y592724D01*
Y591391D01*
X446420Y590059D01*
X449086D01*
X450419Y588726D01*
Y587393D01*
X449086Y586060D01*
X446420D01*
X445087Y587393D01*
X453084Y594057D02*
X458416D01*
X455750D01*
Y586060D01*
X461082D02*
Y591391D01*
X463748Y594057D01*
X466413Y591391D01*
Y586060D01*
Y590059D01*
X461082D01*
X469079Y594057D02*
X474411D01*
X471745D01*
Y586060D01*
X257750Y593944D02*
X256417Y595277D01*
X253751D01*
X252418Y593944D01*
Y588613D01*
X253751Y587280D01*
X256417D01*
X257750Y588613D01*
Y591279D01*
X255084D01*
X260416Y587280D02*
Y595277D01*
X265748Y587280D01*
Y595277D01*
X273745Y593944D02*
X272412Y595277D01*
X269746D01*
X268413Y593944D01*
Y592612D01*
X269746Y591279D01*
X272412D01*
X273745Y589946D01*
Y588613D01*
X272412Y587280D01*
X269746D01*
X268413Y588613D01*
X281742Y593944D02*
X280410Y595277D01*
X277744D01*
X276411Y593944D01*
Y592612D01*
X277744Y591279D01*
X280410D01*
X281742Y589946D01*
Y588613D01*
X280410Y587280D01*
X277744D01*
X276411Y588613D01*
X332668Y595277D02*
Y587280D01*
X338000D01*
X340666Y595277D02*
X345998D01*
X343332D01*
Y587280D01*
X353995Y595277D02*
X348663D01*
Y587280D01*
X353995D01*
X348663Y591279D02*
X351329D01*
X410337Y586060D02*
Y594057D01*
X414336D01*
X415669Y592724D01*
Y590059D01*
X414336Y588726D01*
X410337D01*
X418335Y594057D02*
Y586060D01*
X421000Y588726D01*
X423666Y586060D01*
Y594057D01*
X426332Y586060D02*
Y594057D01*
X430331D01*
X431664Y592724D01*
Y590059D01*
X430331Y588726D01*
X426332D01*
X428998D02*
X431664Y586060D01*
D17*
X238584Y55550D02*
Y60882D01*
X239917D01*
X245248Y55550D01*
X246581D01*
Y60882D01*
X261834Y77550D02*
X269831Y82881D01*
X261834D02*
X269831Y77550D01*
X238834Y96800D02*
X240167D01*
X242833Y99466D01*
X240167Y102132D01*
X238834D01*
X242833Y99466D02*
X246831D01*
M02*
