G04*
G04 #@! TF.GenerationSoftware,Altium Limited,Altium Designer,22.10.1 (41)*
G04*
G04 Layer_Color=128*
%FSLAX44Y44*%
%MOMM*%
G71*
G04*
G04 #@! TF.SameCoordinates,CF2D2C2D-E053-46F7-9F59-BE4F3A44D851*
G04*
G04*
G04 #@! TF.FilePolarity,Positive*
G04*
G01*
G75*
%ADD64C,0.1270*%
D64*
X20900Y45000D02*
X29900D01*
X25400Y40500D02*
Y49500D01*
X20900Y121200D02*
X29900D01*
X25400Y116700D02*
Y125700D01*
X20900Y147000D02*
X29900D01*
X25400Y142500D02*
Y151500D01*
X20900Y172000D02*
X29900D01*
X25400Y167500D02*
Y176500D01*
X20900Y95800D02*
X29900D01*
X25400Y91300D02*
Y100300D01*
X20900Y70400D02*
X29900D01*
X25400Y65900D02*
Y74900D01*
X20900Y299000D02*
X29900D01*
X25400Y294500D02*
Y303500D01*
X20900Y324400D02*
X29900D01*
X25400Y319900D02*
Y328900D01*
X20900Y400600D02*
X29900D01*
X25400Y396100D02*
Y405100D01*
X20900Y375600D02*
X29900D01*
X25400Y371100D02*
Y380100D01*
X20900Y349800D02*
X29900D01*
X25400Y345300D02*
Y354300D01*
X20900Y222800D02*
X29900D01*
X25400Y218300D02*
Y227300D01*
X20900Y248600D02*
X29900D01*
X25400Y244100D02*
Y253100D01*
X20900Y273600D02*
X29900D01*
X25400Y269100D02*
Y278100D01*
X32000Y565000D02*
X42000D01*
X37000Y560000D02*
Y570000D01*
X57000Y565000D02*
X67000D01*
X62000Y560000D02*
Y570000D01*
X503500Y263500D02*
X512500D01*
X508000Y259000D02*
Y268000D01*
X503500Y288900D02*
X512500D01*
X508000Y284400D02*
Y293400D01*
X503500Y365100D02*
X512500D01*
X508000Y360600D02*
Y369600D01*
X503500Y340100D02*
X512500D01*
X508000Y335600D02*
Y344600D01*
X503500Y314300D02*
X512500D01*
X508000Y309800D02*
Y318800D01*
X503500Y441300D02*
X512500D01*
X508000Y436800D02*
Y445800D01*
X503500Y467100D02*
X512500D01*
X508000Y462600D02*
Y471600D01*
X503500Y492100D02*
X512500D01*
X508000Y487600D02*
Y496600D01*
X503500Y415900D02*
X512500D01*
X508000Y411400D02*
Y420400D01*
X503500Y390500D02*
X512500D01*
X508000Y386000D02*
Y395000D01*
X503500Y121200D02*
X512500D01*
X508000Y116700D02*
Y125700D01*
X503500Y146600D02*
X512500D01*
X508000Y142100D02*
Y151100D01*
X503500Y222800D02*
X512500D01*
X508000Y218300D02*
Y227300D01*
X503500Y197800D02*
X512500D01*
X508000Y193300D02*
Y202300D01*
X503500Y172000D02*
X512500D01*
X508000Y167500D02*
Y176500D01*
X503500Y45000D02*
X512500D01*
X508000Y40500D02*
Y49500D01*
X503500Y70800D02*
X512500D01*
X508000Y66300D02*
Y75300D01*
X503500Y95800D02*
X512500D01*
X508000Y91300D02*
Y100300D01*
X414500Y114000D02*
X417500D01*
X416000Y112500D02*
Y115500D01*
X406278Y116405D02*
X409278D01*
X407778Y114905D02*
Y117905D01*
X268331Y156203D02*
X271331D01*
X269831Y154703D02*
Y157703D01*
X182502Y168000D02*
X185502D01*
X184002Y166500D02*
Y169500D01*
X381500Y45000D02*
X384500D01*
X383000Y43500D02*
Y46500D01*
X270500Y50717D02*
X273500D01*
X272000Y49216D02*
Y52217D01*
X198081Y281403D02*
X201081D01*
X199581Y279903D02*
Y282903D01*
X373168Y503000D02*
X376169D01*
X374669Y501500D02*
Y504500D01*
X456837Y513074D02*
X459837D01*
X458337Y511574D02*
Y514574D01*
X443125Y314780D02*
X446125D01*
X444625Y313280D02*
Y316280D01*
X449669Y241000D02*
X452668D01*
X451169Y239500D02*
Y242500D01*
X444169Y176000D02*
X447169D01*
X445668Y174500D02*
Y177500D01*
X350081Y180000D02*
X353081D01*
X351581Y178500D02*
Y181500D01*
X116637Y272868D02*
X119637D01*
X118138Y271368D02*
Y274368D01*
X135955Y187751D02*
X138955D01*
X137455Y186251D02*
Y189251D01*
X190081Y202280D02*
X193081D01*
X191581Y200780D02*
Y203780D01*
X174081Y202000D02*
X177081D01*
X175581Y200500D02*
Y203500D01*
X190081Y88649D02*
X193081D01*
X191581Y87149D02*
Y90148D01*
X127344Y80647D02*
X130344D01*
X128844Y79147D02*
Y82147D01*
X403500Y86000D02*
X406500D01*
X405000Y84500D02*
Y87500D01*
X320668Y462030D02*
X323669D01*
X322169Y460530D02*
Y463530D01*
X255169Y461030D02*
X258169D01*
X256668Y459530D02*
Y462530D01*
X232169Y473530D02*
X235168D01*
X233668Y472030D02*
Y475030D01*
X286169Y403293D02*
X289169D01*
X287669Y401793D02*
Y404793D01*
X299669Y451000D02*
X302668D01*
X301168Y449500D02*
Y452500D01*
X78820Y422750D02*
X81820D01*
X80320Y421250D02*
Y424250D01*
X130887Y412280D02*
X133888D01*
X132388Y410780D02*
Y413780D01*
X171500Y338407D02*
X174500D01*
X173000Y336907D02*
Y339907D01*
X212500Y421000D02*
X215500D01*
X214000Y419500D02*
Y422500D01*
X207090Y332000D02*
X210090D01*
X208590Y330500D02*
Y333500D01*
X273668Y313202D02*
X276668D01*
X275168Y311702D02*
Y314702D01*
X358918Y294530D02*
X361918D01*
X360419Y293030D02*
Y296030D01*
X385668Y332000D02*
X388669D01*
X387169Y330500D02*
Y333500D01*
X426919Y476780D02*
X429919D01*
X428419Y475280D02*
Y478280D01*
X450417Y428530D02*
X453417D01*
X451917Y427030D02*
Y430030D01*
X450417Y365210D02*
X453417D01*
X451917Y363710D02*
Y366710D01*
X426919Y341838D02*
X429919D01*
X428419Y340337D02*
Y343338D01*
X395705Y441530D02*
X398705D01*
X397206Y440030D02*
Y443030D01*
X369169Y453262D02*
X372169D01*
X370668Y451762D02*
Y454762D01*
X187500Y425780D02*
X190500D01*
X189000Y424280D02*
Y427280D01*
X101637Y450530D02*
X104637D01*
X103138Y449030D02*
Y452030D01*
X78820Y454530D02*
X81820D01*
X80320Y453030D02*
Y456030D01*
X75886Y486186D02*
X78886D01*
X77386Y484686D02*
Y487686D01*
X117820Y506925D02*
X120820D01*
X119320Y505425D02*
Y508425D01*
X139637Y503000D02*
X142638D01*
X141138Y501500D02*
Y504500D01*
X146388Y524518D02*
X149388D01*
X147887Y523018D02*
Y526018D01*
X160637Y459278D02*
X163638D01*
X162138Y457778D02*
Y460778D01*
X166500Y483280D02*
X169500D01*
X168000Y481780D02*
Y484780D01*
X208419Y493500D02*
X211419D01*
X209919Y492000D02*
Y495000D01*
X197054Y493500D02*
X200054D01*
X198554Y492000D02*
Y495000D01*
X179500Y493500D02*
X182500D01*
X181000Y492000D02*
Y495000D01*
X166500Y505768D02*
X169500D01*
X168000Y504268D02*
Y507268D01*
X171500Y535000D02*
X174500D01*
X173000Y533500D02*
Y536500D01*
X183652Y537000D02*
X186652D01*
X185152Y535500D02*
Y538500D01*
X204169Y540008D02*
X207169D01*
X205669Y538508D02*
Y541508D01*
X219919Y540008D02*
X222919D01*
X221419Y538508D02*
Y541508D01*
X234429Y535000D02*
X237429D01*
X235929Y533500D02*
Y536500D01*
X244357Y549446D02*
X247357D01*
X245857Y547946D02*
Y550946D01*
X221668Y495282D02*
X224669D01*
X223169Y493782D02*
Y496782D01*
X234920Y486685D02*
X237920D01*
X236420Y485186D02*
Y488186D01*
X261669Y493500D02*
X264669D01*
X263169Y492000D02*
Y495000D01*
X257500Y505768D02*
X260500D01*
X259000Y504268D02*
Y507268D01*
X255169Y518501D02*
X258169D01*
X256668Y517001D02*
Y520001D01*
X263500Y529253D02*
X266500D01*
X265000Y527752D02*
Y530752D01*
X273668Y540008D02*
X276668D01*
X275168Y538508D02*
Y541508D01*
X280169Y549446D02*
X283169D01*
X281669Y547946D02*
Y550946D01*
X325668Y549446D02*
X328669D01*
X327169Y547946D02*
Y550946D01*
X329669Y535000D02*
X332668D01*
X331169Y533500D02*
Y536500D01*
X322361Y524518D02*
X325361D01*
X323861Y523018D02*
Y526018D01*
X317089Y513074D02*
X320089D01*
X318589Y511574D02*
Y514574D01*
X311918Y498281D02*
X314918D01*
X313418Y496781D02*
Y499781D01*
X311918Y486685D02*
X314918D01*
X313418Y485186D02*
Y488186D01*
X338500Y473530D02*
X341500D01*
X340000Y472030D02*
Y475030D01*
X338500Y484030D02*
X341500D01*
X340000Y482530D02*
Y485530D01*
X338500Y497018D02*
X341500D01*
X340000Y495518D02*
Y498518D01*
X347419Y510000D02*
X350419D01*
X348918Y508500D02*
Y511500D01*
X353500Y522768D02*
X356500D01*
X355000Y521268D02*
Y524268D01*
X356169Y535000D02*
X359169D01*
X357668Y533500D02*
Y536500D01*
X362500Y547000D02*
X365500D01*
X364000Y545500D02*
Y548500D01*
X182502Y88649D02*
X185502D01*
X184002Y87149D02*
Y90148D01*
X229476Y50717D02*
X232476D01*
X230976Y49216D02*
Y52217D01*
X206081Y88649D02*
X209081D01*
X207581Y87149D02*
Y90148D01*
X156689Y53779D02*
X159689D01*
X158189Y52279D02*
Y55279D01*
X330390Y76000D02*
X333390D01*
X331890Y74500D02*
Y77500D01*
X276500Y75550D02*
X279500D01*
X278000Y74050D02*
Y77050D01*
X112638Y245503D02*
X115638D01*
X114137Y244003D02*
Y247003D01*
X112638Y156203D02*
X115638D01*
X114137Y154703D02*
Y157703D01*
X207631Y236684D02*
X210631D01*
X209131Y235184D02*
Y238184D01*
X117820Y459278D02*
X120820D01*
X119320Y457778D02*
Y460778D01*
X127450Y366030D02*
X130450D01*
X128950Y364530D02*
Y367530D01*
X53663Y97501D02*
X56663D01*
X55163Y96001D02*
Y99001D01*
X402500Y407000D02*
X405500D01*
X404000Y405500D02*
Y408500D01*
X401500Y193780D02*
X404500D01*
X403000Y192280D02*
Y195280D01*
X96211Y156203D02*
X99211D01*
X97711Y154703D02*
Y157703D01*
X56500Y467000D02*
X59500D01*
X58000Y465500D02*
Y468500D01*
X112638Y371530D02*
X115638D01*
X114137Y370030D02*
Y373030D01*
X104444Y172000D02*
X107444D01*
X105944Y170500D02*
Y173500D01*
X120944Y386280D02*
X123944D01*
X122444Y384780D02*
Y387780D01*
X434669Y64647D02*
X437668D01*
X436169Y63147D02*
Y66147D01*
X443168Y66780D02*
X446169D01*
X444669Y65280D02*
Y68280D01*
X153250Y92000D02*
X156250D01*
X154750Y90500D02*
Y93500D01*
X203336Y47972D02*
X206336D01*
X204836Y46472D02*
Y49472D01*
X423419Y253000D02*
X426418D01*
X424919Y251500D02*
Y254500D01*
X422550Y193780D02*
X425550D01*
X424050Y192280D02*
Y195280D01*
X89960Y144500D02*
X92960D01*
X91460Y143000D02*
Y146000D01*
X73320Y139680D02*
X76320D01*
X74820Y138180D02*
Y141180D01*
X73320Y126222D02*
X76320D01*
X74820Y124722D02*
Y127722D01*
X83000Y120722D02*
X86000D01*
X84500Y119222D02*
Y122222D01*
X84320Y379780D02*
X87320D01*
X85820Y378280D02*
Y381280D01*
X78820Y394258D02*
X81820D01*
X80320Y392758D02*
Y395758D01*
X63046Y408718D02*
X66045D01*
X64545Y407218D02*
Y410218D01*
X66791Y402804D02*
X69791D01*
X68291Y401304D02*
Y404304D01*
X73320Y400280D02*
X76320D01*
X74820Y398780D02*
Y401780D01*
X61500Y132402D02*
X64500D01*
X63000Y130903D02*
Y133903D01*
X88500Y115000D02*
X91500D01*
X90000Y113500D02*
Y116500D01*
X101353Y349800D02*
X104352D01*
X102852Y348300D02*
Y351300D01*
X309375Y69300D02*
X311375D01*
X310375Y68300D02*
Y70300D01*
X309375Y79300D02*
X311375D01*
X310375Y78300D02*
Y80300D01*
X319375Y69300D02*
X321375D01*
X320375Y68300D02*
Y70300D01*
X319375Y79300D02*
X321375D01*
X320375Y78300D02*
Y80300D01*
X303004Y47972D02*
X306004D01*
X304504Y46472D02*
Y49472D01*
X347080Y48783D02*
X350080D01*
X348580Y47283D02*
Y50283D01*
X191420Y477780D02*
X194419D01*
X192920Y476280D02*
Y479280D01*
X286169Y451000D02*
X289169D01*
X287669Y449500D02*
Y452500D01*
X369169Y344530D02*
X372169D01*
X370668Y343030D02*
Y346030D01*
X306669Y376780D02*
X309669D01*
X308169Y375280D02*
Y378280D01*
X329669Y376530D02*
X332668D01*
X331169Y375030D02*
Y378030D01*
X358918Y321104D02*
X361918D01*
X360419Y319604D02*
Y322603D01*
X341169Y255281D02*
X344169D01*
X342668Y253781D02*
Y256781D01*
X233724Y244503D02*
X236723D01*
X235224Y243003D02*
Y246003D01*
X364581Y206703D02*
X367581D01*
X366081Y205203D02*
Y208203D01*
X286668Y206703D02*
X289669D01*
X288169Y205203D02*
Y208203D01*
X229476Y209702D02*
X232476D01*
X230976Y208202D02*
Y211202D01*
X304669Y213233D02*
X307668D01*
X306168Y211733D02*
Y214733D01*
X341169Y409030D02*
X344169D01*
X342668Y407530D02*
Y410530D01*
X163450Y438280D02*
X166450D01*
X164950Y436780D02*
Y439780D01*
X267169Y402530D02*
X270168D01*
X268669Y401030D02*
Y404030D01*
X197054Y405780D02*
X200054D01*
X198554Y404280D02*
Y407280D01*
X182502Y399280D02*
X185502D01*
X184002Y397780D02*
Y400780D01*
X183422Y344530D02*
X186422D01*
X184922Y343030D02*
Y346030D01*
X190420Y412280D02*
X193420D01*
X191920Y410780D02*
Y413780D01*
X190420Y349800D02*
X193420D01*
X191920Y348300D02*
Y351300D01*
X199554Y373280D02*
X202554D01*
X201054Y371780D02*
Y374780D01*
X255169Y383030D02*
X258169D01*
X256668Y381530D02*
Y384530D01*
M02*
